<svg width="24" height="25" viewBox="0 0 24 25" fill="none" xmlns="http://www.w3.org/2000/svg">
<g clip-path="url(#clip0_291_237)">
<path d="M19.0733 5.81219C18.9215 5.7337 18.7736 5.64765 18.6304 5.55437C18.2138 5.27896 17.8318 4.95445 17.4927 4.58781C16.6443 3.61703 16.3274 2.63219 16.2107 1.94266H16.2154C16.1179 1.37031 16.1582 1 16.1643 1H12.2999V15.9428C12.2999 16.1434 12.2999 16.3417 12.2915 16.5377C12.2915 16.562 12.2891 16.5845 12.2877 16.6108C12.2877 16.6216 12.2877 16.6328 12.2854 16.6441C12.2854 16.6469 12.2854 16.6497 12.2854 16.6525C12.2446 17.1886 12.0728 17.7066 11.7849 18.1607C11.497 18.6148 11.1019 18.9913 10.6344 19.2569C10.1472 19.5341 9.5961 19.6795 9.03552 19.6787C7.23505 19.6787 5.77583 18.2106 5.77583 16.3975C5.77583 14.5844 7.23505 13.1162 9.03552 13.1162C9.37634 13.1159 9.71507 13.1696 10.0391 13.2752L10.0438 9.34047C9.06007 9.2134 8.06067 9.29158 7.10866 9.57008C6.15666 9.84858 5.2727 10.3214 4.51255 10.9586C3.84649 11.5373 3.28653 12.2278 2.85787 12.9991C2.69474 13.2803 2.07927 14.4105 2.00474 16.2447C1.95786 17.2858 2.27052 18.3644 2.41958 18.8102V18.8195C2.51333 19.082 2.87661 19.9778 3.46865 20.733C3.94604 21.3387 4.51006 21.8708 5.14255 22.3122V22.3028L5.15193 22.3122C7.02271 23.5834 9.09693 23.5 9.09693 23.5C9.45599 23.4855 10.6588 23.5 12.0247 22.8527C13.5397 22.135 14.4022 21.0658 14.4022 21.0658C14.9533 20.4269 15.3914 19.6988 15.6979 18.9128C16.0476 17.9936 16.1643 16.8911 16.1643 16.4505V8.52297C16.2111 8.55109 16.8355 8.96406 16.8355 8.96406C16.8355 8.96406 17.7351 9.54062 19.1385 9.91609C20.1454 10.1833 21.5019 10.2395 21.5019 10.2395V6.40328C21.0266 6.45484 20.0615 6.30484 19.0733 5.81219Z" fill="#0B0B0B" stroke="#0B0B0B" stroke-width="1.5625"/>
</g>
<defs>
<clipPath id="clip0_291_237">
<rect width="23.5019" height="24.5011" fill="white"/>
</clipPath>
</defs>
</svg>
