<svg width="52" height="50" viewBox="0 0 52 50" fill="none" xmlns="http://www.w3.org/2000/svg">
<rect width="52" height="50" fill="black"/>
<path d="M32 20H36M32 28H36M12.34 30C12.7523 28.828 13.5182 27.8129 14.532 27.0948C15.5459 26.3767 16.7576 25.9911 18 25.9911C19.2424 25.9911 20.4541 26.3767 21.468 27.0948C22.4818 27.8129 23.2477 28.828 23.66 30M22 22C22 24.2091 20.2091 26 18 26C15.7909 26 14 24.2091 14 22C14 19.7909 15.7909 18 18 18C20.2091 18 22 19.7909 22 22ZM8 10H40C42.2091 10 44 11.7909 44 14V34C44 36.2091 42.2091 38 40 38H8C5.79086 38 4 36.2091 4 34V14C4 11.7909 5.79086 10 8 10Z" stroke="#E2CCB3" stroke-width="4" stroke-linecap="round" stroke-linejoin="round"/>
</svg>
