<svg width="25" height="35" viewBox="0 0 25 35" fill="none" xmlns="http://www.w3.org/2000/svg">
<g clip-path="url(#clip0_318_553)">
<path fill-rule="evenodd" clip-rule="evenodd" d="M25 11.6667C25 13.8643 24.3489 15.92 23.217 17.675L12.5 35L1.78296 17.675C0.651052 15.9201 0 13.8643 0 11.6667C0 5.22335 5.59645 0 12.5 0C19.4036 0 25 5.22335 25 11.6667ZM12.5 20.7407C17.8695 20.7407 22.2221 16.6782 22.2221 11.6667C22.2221 6.6552 17.8695 2.5926 12.5 2.5926C7.13057 2.5926 2.77779 6.6552 2.77779 11.6667C2.77779 16.6782 7.13057 20.7407 12.5 20.7407Z" fill="#E2CCB3"/>
<path d="M13.8889 11.6667C13.8889 12.3826 13.267 12.963 12.5 12.963C11.7329 12.963 11.1111 12.3826 11.1111 11.6667C11.1111 10.9508 11.7329 10.3704 12.5 10.3704C13.267 10.3704 13.8889 10.9508 13.8889 11.6667Z" fill="#E2CCB3"/>
</g>
<defs>
<clipPath id="clip0_318_553">
<rect width="25" height="35" fill="white"/>
</clipPath>
</defs>
</svg>
