<svg width="24" height="22" viewBox="0 0 24 22" fill="none" xmlns="http://www.w3.org/2000/svg">
<g clip-path="url(#clip0_291_235)">
<path d="M21.533 5.29949C21.5483 5.53206 21.5483 5.76468 21.5483 5.99724C21.5483 13.0909 16.5991 21.2645 7.55333 21.2645C4.76651 21.2645 2.17768 20.3839 0 18.8556C0.395954 18.9054 0.776628 18.9221 1.18782 18.9221C3.48728 18.9221 5.60407 18.0749 7.29444 16.6295C5.13199 16.5797 3.3198 15.0347 2.69542 12.9082C3.00001 12.958 3.30456 12.9912 3.62438 12.9912C4.066 12.9912 4.50766 12.9247 4.9188 12.8086C2.665 12.3101 0.974582 10.1505 0.974582 7.54224V7.47581C1.62938 7.87452 2.39087 8.12371 3.19792 8.15689C1.87304 7.19333 1.00505 5.54868 1.00505 3.68802C1.00505 2.69126 1.24866 1.77756 1.67508 0.980135C4.09643 4.23625 7.73604 6.36266 11.8172 6.59528C11.7411 6.19657 11.6954 5.7813 11.6954 5.36597C11.6954 2.40884 13.8883 0 16.6142 0C18.0305 0 19.3097 0.6479 20.2081 1.69451C21.3198 1.46195 22.3858 1.01337 23.3299 0.398712C22.9644 1.64471 22.1878 2.69131 21.1675 3.35579C22.1574 3.23956 23.1168 2.94046 24 2.52517C23.33 3.58836 22.4924 4.53526 21.533 5.29949Z" fill="black"/>
</g>
<defs>
<clipPath id="clip0_291_235">
<rect width="24" height="21.6" fill="white"/>
</clipPath>
</defs>
</svg>
