<svg width="25" height="25" viewBox="0 0 25 25" fill="none" xmlns="http://www.w3.org/2000/svg">
<path d="M7.50195 21.5011H17.502M10.502 8.2511C10.5022 8.11789 10.5379 7.98715 10.6055 7.87232C10.673 7.75749 10.7699 7.66272 10.8862 7.59775C11.0025 7.53278 11.134 7.49996 11.2671 7.50265C11.4003 7.50535 11.5304 7.54347 11.644 7.6131L15.308 9.8621C15.4172 9.9292 15.5073 10.0232 15.5699 10.135C15.6325 10.2469 15.6653 10.3729 15.6653 10.5011C15.6653 10.6293 15.6325 10.7553 15.5699 10.8672C15.5073 10.979 15.4172 11.073 15.308 11.1401L11.644 13.3901C11.5302 13.4598 11.4 13.4979 11.2666 13.5006C11.1333 13.5032 11.0016 13.4702 10.8853 13.405C10.7689 13.3398 10.6721 13.2447 10.6047 13.1296C10.5373 13.0145 10.5018 12.8835 10.502 12.7501V8.2511ZM4.50195 3.5011H20.502C21.6065 3.5011 22.502 4.39653 22.502 5.5011V15.5011C22.502 16.6057 21.6065 17.5011 20.502 17.5011H4.50195C3.39738 17.5011 2.50195 16.6057 2.50195 15.5011V5.5011C2.50195 4.39653 3.39738 3.5011 4.50195 3.5011Z" stroke="#E2CCB3" stroke-width="2" stroke-linecap="round" stroke-linejoin="round"/>
</svg>
